<svg xmlns="http://www.w3.org/2000/svg" width="55" height="41" viewBox="0 0 55 41" version="1.1"><path d="M 19.359 6.923 C 17.632 7.976, 15.867 9.437, 15.437 10.169 C 14.975 10.956, 15.441 10.836, 16.578 9.875 C 17.635 8.981, 19.850 7.537, 21.500 6.665 C 23.150 5.793, 24.050 5.064, 23.500 5.044 C 22.950 5.024, 21.087 5.869, 19.359 6.923 M 25.750 5.662 C 26.438 5.940, 27.563 5.940, 28.250 5.662 C 28.938 5.385, 28.375 5.158, 27 5.158 C 25.625 5.158, 25.063 5.385, 25.750 5.662 M 30.333 5.667 C 30.700 6.033, 31.300 6.033, 31.667 5.667 C 32.033 5.300, 31.733 5, 31 5 C 30.267 5, 29.967 5.300, 30.333 5.667 M 35.500 8 C 35.840 8.550, 36.343 9, 36.618 9 C 36.893 9, 36.840 8.550, 36.500 8 C 36.160 7.450, 35.657 7, 35.382 7 C 35.107 7, 35.160 7.450, 35.500 8 M 39 11.378 C 39 11.585, 39.788 12.373, 40.750 13.128 C 42.336 14.371, 42.371 14.336, 41.128 12.750 C 39.821 11.084, 39 10.555, 39 11.378 M 12.405 15.155 C 11.962 15.870, 12.130 16.038, 12.845 15.595 C 13.998 14.883, 14.393 14, 13.559 14 C 13.316 14, 12.797 14.520, 12.405 15.155 M 25.901 16.099 C 24.432 17.568, 23.931 19.077, 24.232 21.126 C 24.499 22.946, 24.253 23.913, 23.581 23.682 C 22.986 23.477, 22.504 21.890, 22.510 20.155 C 22.520 16.738, 22.055 16.345, 20.200 18.200 C 18.418 19.982, 18.743 22.743, 21 25 C 25.253 29.253, 32.632 25.760, 31.772 19.901 C 31.296 16.659, 32.368 16.085, 33.920 18.750 C 34.840 20.331, 34.942 20.338, 34.970 18.832 C 35.063 13.719, 29.852 12.148, 25.901 16.099 M 42 15.500 C 42 15.775, 42.225 16, 42.500 16 C 42.775 16, 43 15.775, 43 15.500 C 43 15.225, 42.775 15, 42.500 15 C 42.225 15, 42 15.225, 42 15.500 M 42 17.500 C 42 17.775, 42.225 18, 42.500 18 C 42.775 18, 43 17.775, 43 17.500 C 43 17.225, 42.775 17, 42.500 17 C 42.225 17, 42 17.225, 42 17.500 M 27.667 18.667 C 26.681 19.652, 26.857 23, 27.894 23 C 28.386 23, 28.724 21.875, 28.644 20.501 C 28.565 19.126, 28.462 18.001, 28.417 18.001 C 28.371 18, 28.033 18.300, 27.667 18.667 M 11.576 22.500 C 12.276 27.110, 14.880 32, 16.634 32 C 17.295 32, 18.595 31.709, 19.522 31.353 C 20.869 30.836, 20.585 30.445, 18.104 29.402 C 16.398 28.684, 14.600 27.063, 14.110 25.799 C 13.620 24.534, 12.712 22.375, 12.093 21 C 11.101 18.794, 11.040 18.971, 11.576 22.500 M 34 21.500 C 34 21.775, 34.225 22, 34.500 22 C 34.775 22, 35 21.775, 35 21.500 C 35 21.225, 34.775 21, 34.500 21 C 34.225 21, 34 21.225, 34 21.500 M 43.079 22.583 C 43.127 23.748, 43.364 23.985, 43.683 23.188 C 43.972 22.466, 43.936 21.603, 43.604 21.271 C 43.272 20.939, 43.036 21.529, 43.079 22.583 M 42 26 C 42 26.733, 42.300 27.033, 42.667 26.667 C 43.033 26.300, 43.033 25.700, 42.667 25.333 C 42.300 24.967, 42 25.267, 42 26 M 41 28.500 C 41 28.775, 41.225 29, 41.500 29 C 41.775 29, 42 28.775, 42 28.500 C 42 28.225, 41.775 28, 41.500 28 C 41.225 28, 41 28.225, 41 28.500 M 21.577 32.705 L 18.655 34.245 21.077 35.587 C 26.241 38.448, 35.541 36.771, 39.073 32.343 C 40.071 31.092, 39.632 31.222, 37.615 32.777 C 34.078 35.503, 31.673 35.576, 27.618 33.082 C 24.743 31.314, 24.272 31.285, 21.577 32.705" stroke="none" fill="#d5940d" fill-rule="evenodd"/><path d="M 32.813 6.683 C 33.534 6.972, 34.397 6.936, 34.729 6.604 C 35.061 6.272, 34.471 6.036, 33.417 6.079 C 32.252 6.127, 32.015 6.364, 32.813 6.683 M 28.405 8.155 C 27.962 8.870, 28.130 9.038, 28.845 8.595 C 29.998 7.883, 30.393 7, 29.559 7 C 29.316 7, 28.797 7.520, 28.405 8.155 M 31 8.500 C 31 8.775, 31.225 9, 31.500 9 C 31.775 9, 32 8.775, 32 8.500 C 32 8.225, 31.775 8, 31.500 8 C 31.225 8, 31 8.225, 31 8.500 M 33 9.500 C 33 9.775, 33.225 10, 33.500 10 C 33.775 10, 34 9.775, 34 9.500 C 34 9.225, 33.775 9, 33.500 9 C 33.225 9, 33 9.225, 33 9.500 M 35 10.500 C 35 10.775, 35.225 11, 35.500 11 C 35.775 11, 36 10.775, 36 10.500 C 36 10.225, 35.775 10, 35.500 10 C 35.225 10, 35 10.225, 35 10.500 M 36.405 12.155 C 35.962 12.870, 36.130 13.038, 36.845 12.595 C 37.998 11.883, 38.393 11, 37.559 11 C 37.316 11, 36.797 11.520, 36.405 12.155 M 21.223 15.557 C 20 16.413, 19 17.628, 19 18.257 C 19 19.083, 19.333 19.067, 20.200 18.200 C 21.809 16.591, 22.786 16.688, 23.177 18.495 C 23.391 19.488, 24.072 18.984, 25.203 16.995 C 26.813 14.166, 26.811 14, 25.176 14 C 24.224 14, 22.445 14.701, 21.223 15.557 M 38.333 14.667 C 38.700 15.033, 39.300 15.033, 39.667 14.667 C 40.033 14.300, 39.733 14, 39 14 C 38.267 14, 37.967 14.300, 38.333 14.667 M 34.750 17.475 C 35.012 18.845, 34.902 20.762, 34.506 21.733 C 33.864 23.308, 33.716 23.325, 33.143 21.891 C 32.646 20.649, 32.130 21.048, 30.876 23.641 C 29.373 26.752, 29.375 27, 30.904 27 C 31.812 27, 33.555 26.299, 34.777 25.443 C 37.337 23.651, 37.861 17.959, 35.637 16.114 C 34.534 15.199, 34.365 15.458, 34.750 17.475 M 11.564 17.707 C 11.022 19.132, 11.136 19.247, 12.124 18.267 C 12.808 17.588, 13.115 16.781, 12.807 16.474 C 12.499 16.166, 11.940 16.721, 11.564 17.707 M 43 20 C 43 20.733, 43.300 21.033, 43.667 20.667 C 44.033 20.300, 44.033 19.700, 43.667 19.333 C 43.300 18.967, 43 19.267, 43 20 M 19.115 31.393 C 15.989 33.125, 18.016 34.406, 21.425 32.852 C 24.119 31.625, 24.895 29.975, 22.750 30.035 C 22.063 30.055, 20.427 30.666, 19.115 31.393" stroke="none" fill="#f9f1de" fill-rule="evenodd"/></svg>